<svg id="Layer_1" data-name="Layer 1" xmlns="http://www.w3.org/2000/svg" viewBox="0 0 248.33 213.33"><defs><style>.cls-1{fill:#31a3cc;}.cls-2{fill:#3caed7;}.cls-3{fill:#32a2cb;}.cls-4{fill:#37a2c9;}.cls-5{fill:#3aa1c6;}.cls-6{fill:#35a2cb;}.cls-7{fill:#33a2ca;}.cls-8{fill:#429bbe;}.cls-9{fill:#358db5;}.cls-10{fill:#368eb6;}.cls-11{fill:#355d88;}</style></defs><path class="cls-1" d="M56.84,98l2.42-1.46-.1-1L37.4,94.55c13.56-.94,25.84-2.32,37.26,4,.81.44,2,.92,2.74,0s-.12-1.83-.36-2.75C75.42,89.64,72.32,84.21,68.7,79c-.34-1,.08-1.31,1-1.06A43.81,43.81,0,0,1,79,93.2c2.65,6.88,4.58,8.1,12,7.58,7.65-.54,15.09-2.47,22.56-4.06,4.74-1,9.46-1.93,14.31-1.7,2.83.13,3.38-.74,1.64-3-2.18-3.94-6.06-6.33-8.84-9.72-.92-1.13-3.29-2.66.31-3.52l12.81,11.14c-1.32-7.55-2.16-14.39-1.83-21.34.12-2.7-2-4.42-3.34-6.48-.27-1,.17-1.38,1.16-1.18,1.24.94,2.59,3.82,3.58-.18,2.87.08,1.7,2,1.51,3.4-.77,14.37,2.26,27.7,10.49,39.73,3,4.37,6.58,7.82,11.51,9.81,7.3,2,13.47-1.61,17.35-10.1a92.89,92.89,0,0,0,5.27-15c.55-1.35.66-2.83,1.17-4.18.42-1.13.46-3,2.17-2.65,2.07.4,1.36,2.11,1,3.49-.19,1-.38,2-.69,3.58l5.19-3c2.62-.59,3.58.17,2.17,2.74-.64,1.15-2.14,1.56-2.63,2.87L183.6,96c-2.59,2.2-3.08,5.42-4,8.41a18.79,18.79,0,0,1-3.3,6.54c-4.73,5.93-10.32,8.48-17.89,6.66-3.87-.94-6.24.6-6.81,5-.48,3.77-1.93,7.39-2.45,11.2-.56,4,0,8.28,3.57,10.28,9.25,5.16,11.69,14.47,15.31,23.14,1,2.4,1.61,5,5.14,3.27a1.73,1.73,0,0,1,1.34.45q1,5,2.11,10a12.53,12.53,0,0,0,1.9,7c.82,2.29,1.65,4.58,2.47,6.88-1.78,2.49-2.87,1.16-4-.67A99.55,99.55,0,0,1,171.4,183c-.76-1.72-.84-4.6-3.37-4.2-1.84.29-.29,3-1.26,4.39l-.24,1.75c-.63,1.41-.86,3.54-3.24,1.82-.32-7.73.1-15.5-1.49-23.17a40.7,40.7,0,0,0-1.37-5.27,12.27,12.27,0,0,0-15.51-7.93c-3.81,1.16-7.5,2.73-10.39,5.66-.81.81-1.6,1.63-2.4,2.45A4.61,4.61,0,0,1,124.8,157a1.61,1.61,0,0,1,.7-2.09c1-.78,2.49-.94,3.09-2.29,3.49-2.78,8.09-4,10.87-7.81,4.46-.9,3.43-5,4.64-7.86,2-8,2.39-16-.41-23.85-1.64-4.6-4-8.6-9-10.39a24.42,24.42,0,0,0-10.09-2c-3.74-.65-5.32,2.47-7.67,4.32-1.14.9-2.09,3.59-4.1.92l2.67-4.28L96.6,104.25a41,41,0,0,1-25-4.17C67.36,97.86,63.25,97.15,58.8,99,57.72,99.53,56.78,99.79,56.84,98Z" transform="translate(-37.4 -29.59)"/><path class="cls-2" d="M173.65,170.9c-2.55,4-4.78,3.16-5.82-.84-1.26-4.84-4.19-8.92-5.54-13.7-1-3.63-3.54-6.41-6.46-8.66-8.92-6.87-9.72-9-6.84-20.19.66-2.56,1.65-5,1.8-7.71s2.15-4.23,4.83-3.77c2.43.42,4.85,0,7.32.69,3.41,1,6.25-.38,8.88-3,4-3.92,6.85-8.24,8-13.76.4-1.87,1.2-3.93,3.77-4-.92,2.74-1.85,5.47-2.77,8.21-1.54,7-2.66,13.87.93,20.58,4.7,10.74,13.58,14.7,24.6,14.85,5.42.07,10.85-.41,16.28-.64a13.74,13.74,0,0,0,2.48.12c1.67.22,2.93,1.08,2.85,2.85s-1.63,1.8-3,2c-4,.52-7.94.6-11.89,1-6.65,3.49-13.8,2-20.32.66-11.89-2.53-18.73,6.42-18.68,16C174.12,164.66,174.7,167.83,173.65,170.9Z" transform="translate(-37.4 -29.59)"/><path class="cls-3" d="M128.59,152.64c.44,2.47-2.27,2-3.09,3.23,3.58,4.08,3.58,4.08,8.06,0a1.23,1.23,0,0,1,1.18,1q-15.84,16.19-6.57,36.86a80.28,80.28,0,0,1,2.63,8c.36,1.09.84,2.25-1.13,2.07a48.79,48.79,0,0,0-3.85-9.66c-5.68-11.67-6.25-23.26,1.17-35-3.9-.44-6.53,1.51-9,3-6.93,4.21-14.34,8-20.28,13.4-9.06,8.22-12,19.14-9.6,31.29.13.64.38,1.26.54,1.9,0,.13-.1.3-.62,1.69-4.61-11.39-2.21-21.2,2.21-31.35L85.87,181c-1.16.52-1.26-.08-1-1,5.72-4.61,13.11-6.72,18.89-12.35-3.19-1.2-6.36-.13-8.88-1.8-.12-2.09,1.51-1.3,2.44-1.36,3.8-.27,7.62.36,11.41-.4A67.79,67.79,0,0,1,128.59,152.64Z" transform="translate(-37.4 -29.59)"/><path class="cls-4" d="M212.64,143.93c3.88-.18,7.83.46,11.62-.94,1-.37,2.7.39,2.83-1.16.14-1.72-1.55-1.7-2.81-2a6.49,6.49,0,0,1-1.64-.91c4.12-1.65,8.24-3.28,12.35-4.95,7.07-2.87,12.84-7.27,16.49-14.13,1.94-.14,1.75.89,1.16,2.13l-1.27,2.72c4.18-.53,7.09-4,11.21-3.91a1.35,1.35,0,0,1,0,2c-9.59,4.38-17.73,11.13-27,16.49,11.27-.42,20.76,4,29.95,9.49,3.33,2,7.2,2.49,11,3.21.16,1.83-.9,1.44-2,1.06-5.46,0-10.45-1.88-15.15-4.33-7.32-3.81-15-4.86-23.12-4.25s-16.22.4-24.28,1.6C210.72,144.9,212.06,144.53,212.64,143.93Z" transform="translate(-37.4 -29.59)"/><path class="cls-5" d="M253.69,214.83c-6.29-8.2-10.55-17.53-14.71-26.9a142.52,142.52,0,0,0-12.49-22.5c-5.65-8.29-13.59-12.77-22.82-15.58.85-2.86,2.9-1.82,4.65-1.33,2,.58,3.78,1.92,6,2.11,2.33.05,4,2.39,6.53,1.81,6.32,4.36,9.69,11.29,14.58,16.89,6.79,7.79,14.43,13.68,25.1,14.61.1,1.91-1,1.48-2.05,1-7.34-.05-13.41-3.37-20.33-8.47,5,14.11,10,26.67,17.09,38.34A1,1,0,0,1,253.69,214.83Z" transform="translate(-37.4 -29.59)"/><path class="cls-6" d="M187.78,91.41c.08-1.44,1.31-2.16,2-3.22,1.29-1.92-.23-2.11-1.55-2.39,1.59-1.15,3.12-2.4,4.78-3.45C198.2,79.09,202.31,75,204.24,69a36.68,36.68,0,0,1,5.43-10c.94-.18,1.57-.05,1.06,1.13-.62,1.64-1.23,3.27-2.08,5.51,4.63-1.63,8.22-4.75,12.84-4.83,1.11-.3,1.4.18,1.16,1.19a24.74,24.74,0,0,0-18.21,14C200.89,83.14,193.66,86.61,187.78,91.41Z" transform="translate(-37.4 -29.59)"/><path class="cls-7" d="M166.77,183.18c0-.81-.11-1.63-.09-2.45,0-1.28-.18-2.91,1.54-3.14,1.45-.2,2.3,1,2.89,2.25,2,4.31,4,8.6,6,12.91.79,1.72,1.55,3.44,3.93,2,5,9,12.11,16.44,17.77,24.94.26,1.06-.18,1.42-1.2,1.22-13-11.4-22.19-25.4-28.76-42.16Z" transform="translate(-37.4 -29.59)"/><path class="cls-7" d="M214.68,151.86c-2.33.33-4.09-1.08-6-2-1.65-.73-3.29-1.82-5-.06l-.91.82c.4,1-.15,1.38-.93,1.68-3.79-1.81-7.24-4.55-11.56-5-4.1-.4-8.24-.34-11.57,2.76-5,6.19-3.43,13.71-4.17,20.75h-.88a62.79,62.79,0,0,0-.06-8.46c-.84-6.17,2.16-11,5.53-15.42,3.24-4.28,8.41-3.65,12.8-2.7,5.24,1.13,10.58-.22,15.78,1.39,1.34.41,3.28-1.14,4.94-1.78l-.67,2.14,0,0c-1.32,1.26,0,1.81.72,2.43C213.8,149.39,215.17,150.07,214.68,151.86Z" transform="translate(-37.4 -29.59)"/><path class="cls-6" d="M178.7,150.15c3.53-4.1,8.72-5.71,13.71-3.73,3.33,1.31,6.79,2.63,9.26,5.48,2.28,1.06,3.06,3.64,5,5a29.34,29.34,0,0,1,4,13.87c.8,3.21.22,6.46.33,9.69,0,.93-.37,1.54-1.44,1.39a1.28,1.28,0,0,1-.1-.79c.32-1.74-2.41-1.57-2.06-3.32,2.65-10-2-18.18-8.19-24.79C193.93,147.2,186,148,178.7,150.15Z" transform="translate(-37.4 -29.59)"/><path class="cls-7" d="M163.68,186.89c1.51.17,1.92-1.28,2.85-2-2,10.82-2.16,21.73-1.68,32.68,0,1.53,1.6,3.53-1.23,4.25-1.84-2.45-.41-5.5-1.73-8.5-3.5,3.14-6.28,7-10.16,9.54-1,.36-1.2-.1-1-1,7.6-6.22,12.15-13.61,10.8-24.06a36.59,36.59,0,0,1,1-14.28C163.86,184.35,162.42,186.09,163.68,186.89Z" transform="translate(-37.4 -29.59)"/><path class="cls-6" d="M163.68,186.89c-2.08-.51-.39-2.34-1.16-3.31a107.58,107.58,0,0,0-1.45-18.72c-2.81-14.57-11-18-23.46-9.81l-2.87,1.88-1.18-1c5.2-6.13,12.28-8.52,19.56-6.62,6.13,1.59,8.46,7.68,9.58,13.86C164.12,171,163.48,179,163.68,186.89Z" transform="translate(-37.4 -29.59)"/><path class="cls-6" d="M120.94,78.79c-2.18,1.6-.24,2.56.65,3.5,2.39,2.54,4.93,4.94,7.35,7.46.55.58,1.95,1.16.53,2.28C118.8,81.38,107.8,71,102.06,56.52c-.18-.46-.33-.94-.5-1.4-.38-1.08.13-1.29,1.06-1.1A97.25,97.25,0,0,0,120.94,78.79Z" transform="translate(-37.4 -29.59)"/><path class="cls-6" d="M178.55,37.09l6.66,11.65c3.27-5.33,5.44-11,9.73-15.28.74.65.3,1.15-.06,1.68a53.28,53.28,0,0,0-9.52,32.7c.06,2.12.4,4.31-.55,6.37-2.46-2.68-1.38-6-1.45-9,0-1.77.9-3.6-.53-5.23,2.69-8.36-2-15-5.22-21.94C177.19,37,177.67,36.83,178.55,37.09Z" transform="translate(-37.4 -29.59)"/><path class="cls-8" d="M112.87,106c2.92,1.25,3.43-1.83,5.06-2.87,2.07-1.33,3.52-4.27,6.71-2.37-5.29,1.81-8.57,5.92-11.71,10.2-5.23,7.13-9.71,15-18.26,18.93-1.11.77-1.9.82-1.9-.87,6.78-3.36,10.82-9.32,14.75-15.42C109.2,111,110.51,108.12,112.87,106Z" transform="translate(-37.4 -29.59)"/><path class="cls-9" d="M179.75,88.9c-1.34,8.38-3.62,16.35-9.57,22.81-3.22,3.49-8.61,4.33-13.35,2,5.44.83,9.09-2,12.3-5.89,4.6-5.6,7.06-12.26,9.66-18.88A.65.65,0,0,1,179.75,88.9Z" transform="translate(-37.4 -29.59)"/><path class="cls-6" d="M179.75,88.9q-.48,0-1,0c3.1-9.41,2.07-19.4,4-29,1.82-.78,1.77.37,1.78,1.64,0,4.2.13,8.4.2,12.61,0,3.69.36,7.43-1.07,11-.15-.93.21-2.3-.78-2.61-1.35-.43-1.11,1.16-1.6,1.87C180.42,85.81,181.19,87.75,179.75,88.9Z" transform="translate(-37.4 -29.59)"/><path class="cls-10" d="M134.73,102.73c4.6.44,8.18,4.23,10,9.8,2.7,8.49,2,16.88,0,25.31-.91.18-1.58.13-1-1.08.81-6.38,1.66-12.75.17-19.16C142.43,111.62,139.69,106.51,134.73,102.73Z" transform="translate(-37.4 -29.59)"/><path class="cls-6" d="M197.58,220.91l1.2-1.22c2.72,3.3,5.26,6.76,8.2,9.85s6.27,5.82,10.28,9.48c-3.7-.86-5.51-2.73-7.35-4.43-2.46-2.28-3.7-2.13-3.58,2.07C204.1,230.63,200.85,225.76,197.58,220.91Z" transform="translate(-37.4 -29.59)"/><path class="cls-6" d="M163.62,221.86c1.6-1.07.69-2.87,1.23-4.25.78,3.7,1.43,7.43,2.35,11.09,1.34,5.29,3.23,10.36,7.45,14.22C168.63,239.73,165.28,233.14,163.62,221.86Z" transform="translate(-37.4 -29.59)"/><path class="cls-6" d="M134.83,64.15c-.29-1.23-.05-2.69-1.51-3.4q2.75-10.3,5.5-20.61c1.78-.1,1.38.91,1,1.92Z" transform="translate(-37.4 -29.59)"/><path class="cls-6" d="M252.64,122c-.11-.86-.24-1.71-1.16-2.13,2.61-6,3.11-12.45,4.32-18.76,2.39.33,1,1.85.93,3C256.63,110.32,255.72,116.41,252.64,122Z" transform="translate(-37.4 -29.59)"/><path class="cls-6" d="M84.83,180l1,1c-5.24,4.32-11.55,5.12-18.07,5.34C73.75,184.89,79.56,183.14,84.83,180Z" transform="translate(-37.4 -29.59)"/><path class="cls-6" d="M108.69,164.06c-2.55,1.93-5.46.46-8.17.89-1.89.3-4-.84-5.68.87a14.86,14.86,0,0,1-8.55-3.59A88.85,88.85,0,0,0,108.69,164.06Z" transform="translate(-37.4 -29.59)"/><path class="cls-6" d="M262.6,122.8c0-.67,0-1.33,0-2,4-2.24,8.55-1.61,12.87-2.09,1-.25,1.35.16,1.06,1.13Z" transform="translate(-37.4 -29.59)"/><path class="cls-6" d="M209.64,181.86c2.15-3.51.29-7.43,1.11-11.08,2.17,7.85.1,15.59-.54,23.37A37.36,37.36,0,0,1,209.64,181.86Z" transform="translate(-37.4 -29.59)"/><path class="cls-6" d="M256.73,104.06c-.31-1,.09-2.19-.93-3,.58-5,2.08-9.48,6.6-12.51C258.78,93.15,258.47,98.85,256.73,104.06Z" transform="translate(-37.4 -29.59)"/><path class="cls-6" d="M210.73,60.16,209.67,59c1.38-4.41,2.77-8.81,4.41-14C214,50.89,215.53,56.26,210.73,60.16Z" transform="translate(-37.4 -29.59)"/><path class="cls-6" d="M181.76,124.74c-.86,1-1.57.42-1.8-.43a36.12,36.12,0,0,1,0-20.4c0-.06.31-.09.44,0s.27.19.4.29c-.12,1.28-.23,2.55-.34,3.83a35.32,35.32,0,0,0,0,10.91Z" transform="translate(-37.4 -29.59)"/><path class="cls-2" d="M214.68,151.86c-1-1-2-2-3-3-1.21-1.13-1.45-2.09.35-2.82,2.23,3.09,6.56,3.31,8.79,6.4C218.39,156.13,216.8,151.25,214.68,151.86Z" transform="translate(-37.4 -29.59)"/><path class="cls-6" d="M129.67,203.85c1.05-.32.81-1.35,1.13-2.07,2.3,5.4.95,10.43-1.63,15.35C130,212.72,129.77,208.28,129.67,203.85Z" transform="translate(-37.4 -29.59)"/><path class="cls-6" d="M92.77,129c.39.84,1.17.79,1.9.87-6,3.53-12.47,2-18.84,1.65C81.52,130.92,87.32,131.07,92.77,129Z" transform="translate(-37.4 -29.59)"/><path class="cls-6" d="M139.81,42.06l-1-1.92V29.93l1.23,0C140.76,33.93,141.47,37.94,139.81,42.06Z" transform="translate(-37.4 -29.59)"/><path class="cls-6" d="M102.62,54l-1.06,1.1L94.87,43.84C98.67,46.33,100.94,50,102.62,54Z" transform="translate(-37.4 -29.59)"/><path class="cls-6" d="M56.84,98c.37.89,1.25.76,2,1-3.8,2.56-8.34,3.76-12.19,6.36C49.59,102.32,52.77,99.58,56.84,98Z" transform="translate(-37.4 -29.59)"/><path class="cls-6" d="M150.75,221.92l1,1a32.55,32.55,0,0,1-11.82,6.92Z" transform="translate(-37.4 -29.59)"/><path class="cls-6" d="M129.74,60.93l-1.16,1.18a23.24,23.24,0,0,1-7.09-12Z" transform="translate(-37.4 -29.59)"/><path class="cls-6" d="M222.65,62c-.39-.4-.77-.8-1.16-1.19,4.82-2.17,8.8,0,12.71,2.66C230.46,61.89,226.55,62,222.65,62Z" transform="translate(-37.4 -29.59)"/><path class="cls-6" d="M69.74,78,68.7,79l-7.89-7.38C64.83,72.39,67.47,74.94,69.74,78Z" transform="translate(-37.4 -29.59)"/><path class="cls-3" d="M143.64,136.76c.34.36.68.72,1,1.09-.23.59-.84,1.36-.66,1.76,2.43,5.22-1.37,4.93-4.53,5.22C141.52,142.48,142.34,139.5,143.64,136.76Z" transform="translate(-37.4 -29.59)"/><path class="cls-6" d="M276.51,119.85l-1.06-1.13c3.33-1.68,7.15-2.16,10.29-4.36A14.43,14.43,0,0,1,276.51,119.85Z" transform="translate(-37.4 -29.59)"/><path class="cls-6" d="M253.69,214.83h1.5c2.85,2.63,5,6,8.28,8.15.31.89.14,1.32-.89.94C259.09,221.41,255.84,218.66,253.69,214.83Z" transform="translate(-37.4 -29.59)"/><path class="cls-6" d="M258.43,185l2.06-1,12.06,1.29C267.82,186,263.09,186.86,258.43,185Z" transform="translate(-37.4 -29.59)"/><path class="cls-5" d="M206.71,156.91c-3.12-.22-3.89-2.81-5-5l1.09-1.23A9,9,0,0,1,206.71,156.91Z" transform="translate(-37.4 -29.59)"/><path class="cls-6" d="M262.58,223.93l.89-.94,8.58,4.66C268,227.78,265.27,226,262.58,223.93Z" transform="translate(-37.4 -29.59)"/><path class="cls-6" d="M207.48,177.75c1.13.83,3.15,1.11,2.06,3.32-3.14-1.88-3.53,3.05-6.46,2.39Z" transform="translate(-37.4 -29.59)"/><path class="cls-6" d="M274.52,153.05c.69-.28,1.62-.13,2-1.06,2.3.52,4.88.33,7.06,2.79A19.89,19.89,0,0,1,274.52,153.05Z" transform="translate(-37.4 -29.59)"/><path class="cls-6" d="M178.55,37.09l-.94.93c-1.83-2.44-2-5.35-1.79-8.43Z" transform="translate(-37.4 -29.59)"/><path class="cls-2" d="M180.5,118.9a15.41,15.41,0,0,1,0-10.91C180.49,111.63,180.49,115.26,180.5,118.9Z" transform="translate(-37.4 -29.59)"/><path class="cls-7" d="M178.54,187.87a5.78,5.78,0,0,1-1.9-7Q177.59,184.4,178.54,187.87Z" transform="translate(-37.4 -29.59)"/><path class="cls-11" d="M173.83,141c-4.46,7.52-9.9,8.87-16.83,4.19-5.69-3.85-6.24-11.13-1.29-17.15,2.26-.53,2.6,1.47,3.52,2.68,3.24,4.28,6.75,8.08,12.76,7.9C173.57,138.53,174.59,139.1,173.83,141Z" transform="translate(-37.4 -29.59)"/><path class="cls-11" d="M173.83,141c-.19-.44-.42-1.28-.55-1.26-8.51.93-12.91-4.24-16.39-10.87-.2-.38-.78-.56-1.18-.83l1-1.12c4.09-3.36,7.16-3.08,13.72,1.22,4.39,2.88,5.66,6.08,4.28,10.77Z" transform="translate(-37.4 -29.59)"/></svg>