<?xml version="1.0" encoding="UTF-8" standalone="no"?>
<!DOCTYPE svg PUBLIC "-//W3C//DTD SVG 1.1//EN" "http://www.w3.org/Graphics/SVG/1.1/DTD/svg11.dtd">
<svg width="100%" height="100%" viewBox="0 0 606 1060" version="1.1" xmlns="http://www.w3.org/2000/svg" xmlns:xlink="http://www.w3.org/1999/xlink" xml:space="preserve" xmlns:serif="http://www.serif.com/" style="fill-rule:evenodd;clip-rule:evenodd;stroke-linejoin:round;stroke-miterlimit:2;">
    <g transform="matrix(1,0,0,1,1034.9,1293.47)">
        <g>
            <g transform="matrix(-0.925462,-0.378839,-0.378839,0.925462,949.577,-1089.68)">
                <path d="M1342.7,1192.58C1344.33,1190.38 1347.69,1185.85 1348.56,1183.25C1349.23,1181.26 1345.97,1176.26 1347.94,1176.98C1354.22,1179.27 1383.72,1194.14 1386.24,1197.01C1388.76,1199.88 1369.49,1193.21 1363.06,1194.19C1359.33,1194.76 1360.65,1195.21 1357.37,1197.39C1355.53,1198.62 1350.03,1201.42 1347.68,1202.89C1344.5,1204.87 1301.75,1238.21 1301.88,1244.96C1301.98,1250.2 1304.98,1259.63 1308.87,1265.44C1312.44,1270.79 1314.22,1277.28 1316.67,1282.48C1321.77,1293.29 1323.49,1306.26 1328.71,1315.87C1329.27,1316.88 1339.15,1323.83 1351.99,1324.27C1358.59,1324.5 1366.61,1322.2 1372.28,1320.49C1377.11,1319.03 1383.86,1316.34 1384.08,1316.81C1386.01,1321.09 1374.52,1325.6 1360.77,1328.28C1355.55,1329.3 1348.18,1328.78 1343.57,1327.5C1338.33,1326.04 1334.61,1322.21 1332.68,1323.7C1331.55,1324.57 1341.31,1339.87 1341.65,1340.51C1344.47,1345.77 1349.97,1350.61 1348.14,1352.16C1344.95,1354.88 1338.82,1344.73 1331.64,1329.81C1318.34,1302.16 1301.45,1258.15 1293.07,1249.41C1289.2,1245.38 1285.24,1252.82 1280.78,1259.06C1276.89,1264.5 1272.35,1268.37 1270.7,1271.42C1267.97,1276.5 1268.13,1284.94 1267.87,1289.75C1267.68,1293.28 1269.86,1298.84 1269.17,1300.28C1268.48,1301.72 1264.69,1300.06 1263.71,1298.4C1262.49,1296.33 1261.82,1291.42 1261.85,1287.88C1261.87,1284.34 1264.46,1279.01 1263.85,1277.16C1263.27,1275.37 1260.05,1276.36 1258.21,1276.77C1255.06,1277.46 1249.38,1279.81 1244.96,1281.31C1239.4,1283.19 1230.4,1286.58 1224.91,1288.06C1220.68,1289.2 1214.62,1290.68 1211.96,1290.2C1210.03,1289.84 1208.28,1286.13 1208.97,1285.13C1209.67,1284.13 1213.8,1284.83 1216.12,1284.21C1219.73,1283.26 1225.89,1281.27 1230.63,1279.38C1236.4,1277.08 1244.22,1273.04 1250.75,1270.41C1257.01,1267.89 1264.54,1267.82 1269.81,1263.61C1275.84,1258.8 1280.58,1248.37 1286.93,1241.58C1293.36,1234.7 1301.12,1228.65 1308.37,1222.36C1315.74,1215.97 1326.07,1207.57 1331.14,1203.25C1333.74,1201.03 1336.86,1198.22 1338.79,1196.44C1340.13,1195.2 1341.61,1194.05 1342.7,1192.58Z" style="fill:rgb(199,205,199);fill-opacity:0.7;"/>
            </g>
            <g transform="matrix(-0.340537,0.589828,0.399318,0.230546,-824.99,-1994.34)">
                <path d="M1342.7,1192.58C1344.33,1190.38 1347.69,1185.85 1348.56,1183.25C1349.23,1181.26 1346.27,1175.71 1347.94,1176.98C1350.36,1178.8 1369.49,1193.21 1363.06,1194.19C1359.33,1194.76 1360.65,1195.21 1357.37,1197.39C1355.53,1198.62 1350.03,1201.42 1347.68,1202.89C1344.68,1204.75 1314.57,1223.73 1314.29,1223.93C1311.62,1225.94 1285.24,1252.82 1280.78,1259.06C1276.89,1264.5 1272.35,1268.37 1270.7,1271.42C1267.97,1276.5 1268.13,1284.94 1267.87,1289.75C1267.68,1293.28 1269.86,1298.84 1269.17,1300.28C1268.48,1301.72 1264.69,1300.06 1263.71,1298.4C1262.49,1296.33 1261.82,1291.42 1261.85,1287.88C1261.87,1284.34 1264.46,1279.01 1263.85,1277.16C1263.27,1275.37 1260.05,1276.36 1258.21,1276.77C1255.06,1277.46 1249.38,1279.81 1244.96,1281.31C1239.4,1283.19 1230.4,1286.58 1224.91,1288.06C1220.68,1289.2 1214.62,1290.68 1211.96,1290.2C1210.03,1289.84 1208.28,1286.13 1208.97,1285.13C1209.67,1284.13 1213.8,1284.83 1216.12,1284.21C1219.73,1283.26 1225.89,1281.27 1230.63,1279.38C1236.4,1277.08 1244.22,1273.04 1250.75,1270.41C1257.01,1267.89 1264.54,1267.82 1269.81,1263.61C1275.84,1258.8 1280.58,1248.37 1286.93,1241.58C1293.36,1234.7 1301.12,1228.65 1308.37,1222.36C1315.74,1215.97 1326.07,1207.57 1331.14,1203.25C1333.74,1201.03 1336.86,1198.22 1338.79,1196.44C1340.13,1195.2 1341.61,1194.05 1342.7,1192.58Z" style="fill:rgb(175,183,174);fill-opacity:0.7;"/>
            </g>
            <g transform="matrix(-0.5,-0.866025,0.866025,-0.5,-1072.55,1252.23)">
                <path d="M1369.1,1147.88C1369.6,1151 1364.87,1161.77 1361.3,1163.26C1358.26,1164.53 1354.96,1160.99 1351.75,1158.15C1351.21,1157.67 1348.09,1157.2 1347.73,1156.78C1345.38,1154.08 1343.06,1147.5 1346.37,1146.12C1347.28,1145.74 1348.91,1145.72 1351.1,1145.4C1353.23,1145.08 1355.9,1144.44 1358.35,1144.58C1363.24,1144.85 1368.61,1144.77 1369.1,1147.88Z" style="fill:rgb(113,128,112);fill-opacity:0.59;"/>
            </g>
            <g transform="matrix(-0.5,-0.866025,0.866025,-0.5,-1074.46,1248.93)">
                <path d="M1027.98,1193.25C1027.19,1193.12 1025.54,1192.86 1025.14,1191.96C1024.77,1191.1 1025.61,1189.61 1025.92,1189.05C1026.57,1187.89 1029.69,1186.54 1031.86,1186.32C1036.71,1185.82 1047.3,1185.57 1054.99,1186.09C1070.31,1187.12 1103.27,1189.35 1123.81,1192.5C1142.21,1195.32 1165.3,1201.55 1178.25,1205.01C1186.2,1207.13 1193.33,1212.38 1201.52,1213.24C1212.7,1214.42 1230.92,1214.48 1245.33,1212.06C1260.8,1209.46 1279.39,1202.17 1294.32,1197.66C1307.89,1193.56 1325.88,1187.39 1334.92,1184.99C1339.35,1183.81 1346.39,1184.59 1348.56,1183.25C1350.35,1182.15 1347.91,1179.08 1347.94,1176.98C1348.03,1171.16 1344.2,1156.56 1349.09,1148.36C1356.19,1136.47 1382.77,1113.41 1390.55,1105.63C1392.09,1104.09 1395.72,1103.87 1395.75,1101.69C1395.81,1098.08 1394.71,1088.75 1390.89,1083.95C1386.05,1077.88 1376.44,1068.31 1366.73,1065.24C1355.04,1061.55 1333.01,1060.73 1320.75,1061.81C1311.01,1062.66 1301.56,1066.73 1293.17,1071.73C1284.15,1077.1 1274.3,1085.99 1266.66,1094C1259.25,1101.77 1252.11,1114.49 1247.33,1119.78C1244.86,1122.53 1238.6,1126.1 1237.98,1125.74C1237.36,1125.39 1241.81,1120.41 1243.61,1117.66C1246.74,1112.86 1253.56,1102.6 1256.8,1096.93C1259.23,1092.69 1264.45,1086.29 1263.03,1083.65C1261.62,1081.01 1253.24,1081.79 1248.3,1081.11C1241.54,1080.19 1229.66,1080.11 1222.48,1078.13C1216.24,1076.4 1208.13,1071.13 1205.24,1069.21C1204.51,1068.72 1204.67,1067.14 1205.12,1066.59C1205.56,1066.04 1207.67,1066.43 1208.83,1066.88C1211.11,1067.76 1215.16,1071.07 1218.79,1071.86C1224.88,1073.19 1236.59,1074.34 1245.35,1074.85C1254,1075.34 1264.71,1076.19 1271.34,1074.89C1276.53,1073.87 1280.45,1069.51 1285.12,1067.02C1290.46,1064.17 1297.04,1059.74 1303.39,1057.8C1309.73,1055.86 1316.54,1055.71 1323.17,1055.37C1330.33,1055.01 1338.93,1055.18 1346.34,1055.64C1353.46,1056.08 1361.56,1056.67 1367.6,1058.13C1372.88,1059.4 1378.18,1061.72 1382.63,1064.41C1387,1067.05 1392.68,1073.62 1394.34,1074.27C1396,1074.92 1392.62,1070.37 1392.58,1068.3C1392.5,1064.19 1393.17,1055.12 1393.85,1049.65C1394.45,1044.88 1395.96,1040.25 1396.7,1035.5C1397.58,1029.88 1398.53,1022.24 1399.13,1015.91C1399.7,1009.79 1401.89,1003.11 1400.28,997.512C1398.66,991.911 1392.68,986.404 1389.43,982.303C1386.78,978.964 1384.31,975.265 1380.75,972.91C1375.92,969.707 1366.91,965.452 1360.44,963.088C1354.49,960.911 1347.08,960.106 1341.93,958.723C1337.73,957.597 1333.54,956.401 1329.51,954.788C1324.41,952.749 1316.06,949.2 1311.34,946.49C1307.61,944.349 1303.67,940.393 1301.19,938.53C1299.67,937.386 1295.28,936.776 1296.48,935.31C1296.85,934.85 1301.37,934.764 1303.47,935.785C1305.72,936.879 1307.52,940.221 1309.99,941.874C1313.19,944.013 1318.22,946.817 1322.65,948.618C1323.13,948.809 1327.66,951.527 1326.82,945.935C1325.74,938.708 1323.28,932.749 1320.62,921.129C1316.11,901.426 1311.15,875.898 1312.31,876.253C1312.66,876.358 1313.53,878.11 1314.95,881.46C1316.52,885.168 1316.2,889.974 1317.41,893.67C1319.03,898.584 1321.8,911.284 1323.43,917.684C1328.94,939.359 1336.76,953.015 1338.49,953.453C1343.96,954.839 1349.89,955.47 1355.48,956.934C1361.17,958.423 1367.79,960.119 1372.63,962.387C1376.97,964.424 1380.91,967.395 1384.5,970.539C1388.09,973.683 1391.46,978.166 1394.16,981.252C1396.4,983.805 1398.14,987.715 1400.69,989.056C1403.24,990.397 1406.67,990.167 1409.46,989.297C1413.65,987.994 1420.23,983.682 1425.78,981.241C1433.36,977.91 1446.47,972.926 1454.92,969.309C1462.17,966.204 1469.44,962.431 1476.48,959.536C1483.26,956.746 1492.59,954.837 1497.12,951.942C1500.42,949.832 1502.55,945.475 1503.64,942.167C1504.69,938.978 1504.57,935.215 1503.66,932.094C1502.74,928.973 1499.77,926.451 1498.14,923.443C1496.21,919.86 1491.66,911.308 1492.04,910.595C1492.42,909.882 1497.86,916.111 1500.41,919.165C1502.97,922.218 1505.99,925.447 1507.39,928.915C1508.79,932.363 1509.1,936.875 1508.83,939.978C1508.59,942.687 1507.23,945.251 1505.76,947.537C1503.68,950.768 1496.55,957.216 1496.35,959.363C1496.14,961.509 1501.78,960.305 1504.53,960.417C1509.82,960.633 1520.85,961.507 1528.05,960.657C1534.8,959.859 1542.24,956.921 1547.72,955.313C1552.17,954.008 1557.49,951.662 1560.95,951.01C1563.42,950.544 1568.47,950.53 1568.47,951.398C1568.46,952.265 1563.68,955.058 1560.93,956.216C1556.36,958.139 1547.9,961.538 1541.05,962.939C1533.2,964.543 1522.23,965.392 1513.88,965.835C1506.25,966.24 1497.18,965.499 1490.96,965.599C1486.15,965.676 1480.88,965.608 1476.56,966.435C1472.55,967.202 1468.81,969.025 1465.03,970.56C1460.09,972.564 1453.03,976.011 1446.91,978.462C1439.23,981.542 1425.86,985.035 1418.94,989.037C1413.43,992.221 1407.79,999.004 1405.38,1002.47C1403.96,1004.51 1404.69,1007.38 1404.43,1009.85C1404.1,1013.1 1403.63,1017.91 1403.37,1021.96C1403.08,1026.71 1403.27,1032.97 1402.65,1038.36C1402.02,1043.72 1400.17,1049.69 1399.62,1054.27C1399.17,1058.11 1398.44,1062.12 1399.4,1065.87C1400.58,1070.47 1404.09,1076.65 1406.72,1081.9C1410.52,1089.46 1415.36,1102.53 1422.17,1111.23C1429.29,1120.34 1440.55,1127.93 1449.47,1136.53C1458.38,1145.12 1467.57,1155.68 1475.69,1162.8C1482.69,1168.93 1490.5,1175.01 1498.23,1179.26C1505.67,1183.35 1514.06,1185.41 1522.04,1188.29C1532.25,1191.97 1547.99,1196.86 1559.49,1201.36C1570.19,1205.56 1580.59,1210.51 1591.03,1215.34C1603.04,1220.89 1621.59,1229.97 1631.55,1234.69C1637.93,1237.71 1644.44,1240.48 1650.77,1243.64C1660.85,1248.66 1680.35,1258.45 1692.01,1264.83C1701.77,1270.17 1712.59,1276.37 1720.69,1281.9C1727.75,1286.72 1733.89,1292.74 1740.62,1298C1747.78,1303.6 1756.69,1310.42 1763.64,1315.5C1769.76,1319.98 1775.29,1325.66 1782.33,1328.49C1790.11,1331.62 1800.99,1332.64 1810.36,1334.27C1819.72,1335.89 1829.59,1338.63 1838.57,1338.25C1847.36,1337.87 1856.19,1335.62 1864.21,1331.99C1875.35,1326.94 1895.73,1313.27 1905.43,1307.95C1910.9,1304.95 1916.65,1301.47 1922.4,1300.06C1928.07,1298.67 1936.19,1298.96 1939.91,1299.48C1941.91,1299.76 1944.66,1302.09 1944.7,1303.18C1944.74,1304.27 1941.89,1305.64 1940.14,1306.02C1937.38,1306.63 1932.09,1306.16 1928.14,1306.82C1923.49,1307.59 1917.2,1308.41 1912.23,1310.66C1907,1313.01 1902.04,1317.67 1896.8,1320.95C1891.11,1324.5 1883.85,1328.91 1878.08,1331.99C1872.9,1334.75 1867.63,1337.38 1862.13,1339.43C1856.45,1341.55 1850.13,1343.8 1843.98,1344.69C1837.83,1345.59 1831.21,1345.02 1825.23,1344.78C1819.51,1344.56 1812.54,1343.68 1808.12,1343.28C1804.99,1343 1799.27,1341.68 1798.73,1342.38C1798.17,1343.07 1802.8,1345.75 1804.83,1347.45C1808.85,1350.8 1816.88,1357.44 1822.86,1362.48C1828.94,1367.61 1834.6,1374.13 1841.33,1378.21C1848.05,1382.29 1855.37,1386.76 1863.23,1386.96C1871.12,1387.15 1880.72,1383.27 1888.67,1379.39C1897.77,1374.95 1909.77,1366.39 1917.8,1360.34C1924.63,1355.18 1929.84,1348.03 1936.83,1343.08C1944.22,1337.86 1954.89,1332.34 1962.12,1329C1967.88,1326.33 1973.88,1323.68 1980.2,1323.01C1991.24,1321.85 2015.45,1321.53 2028.37,1322.02C2038.23,1322.39 2050.65,1325.3 2057.71,1325.96C2062.32,1326.39 2069.6,1328.57 2076.96,1330.41C2082.61,1331.83 2094.35,1339.06 2099.86,1335.94C2102.85,1334.25 2102.39,1331.61 2104.65,1328.72C2107.97,1324.47 2110.63,1316.72 2108.63,1308.49C2106.92,1301.44 2100.53,1293.82 2102.42,1290.22C2103.79,1287.61 2107.03,1304.39 2111.38,1305.38C2114.79,1306.15 2118.83,1290.53 2119.57,1290.7C2123.55,1291.63 2118.38,1300.32 2115.01,1308.32C2110.16,1319.81 2105.54,1332.21 2107.7,1337.92C2111.36,1347.6 2135.2,1346.27 2141.53,1348.8C2143.38,1349.54 2146.26,1352.53 2145.68,1353.12C2145.09,1353.7 2140.6,1352.44 2138.04,1352.32C2134.39,1352.16 2113.3,1342.75 2111.68,1347.22C2109.97,1351.92 2129.76,1372.08 2126.16,1371.04C2123.06,1370.15 2118.95,1364.48 2114.86,1358C2111.78,1353.1 2108.91,1347.7 2105.38,1343.79C2103.02,1341.19 2098.62,1341.24 2095.99,1340.23C2089.23,1337.64 2081.06,1335.19 2075.23,1333.86C2070.58,1332.8 2065.36,1332.84 2061,1332.25C2057.03,1331.72 2051.6,1329.84 2049.12,1330.36C2047.23,1330.76 2046.63,1333.49 2046.17,1335.37C2045.13,1339.58 2043.33,1348.81 2042.93,1355.64C2042.51,1362.8 2038.19,1373.06 2043.62,1378.32C2044.9,1379.55 2047.96,1383.76 2053.03,1380.42C2058.96,1376.51 2067.16,1364.89 2071.17,1365.69C2075.05,1366.46 2057.59,1375.89 2058.23,1381.07C2058.57,1383.8 2062.83,1383.89 2067.44,1385.09C2072.35,1386.37 2077.62,1388.69 2077.69,1389.26C2077.89,1390.91 2061.09,1385.81 2050.61,1385.05C2046.85,1384.78 2045.1,1384.5 2042.93,1385.18C2036.35,1387.26 2044.9,1404.09 2045.97,1405.95C2048.2,1409.86 2053.56,1413.95 2056.34,1416.28C2058.2,1417.85 2061.86,1418.27 2062.63,1419.97C2063.4,1421.67 2061.97,1425.92 2060.95,1426.47C2059.94,1427.03 2057.89,1424.51 2056.55,1423.29C2053.74,1420.7 2047.18,1415.19 2044.05,1410.99C2041.18,1407.15 2038.89,1402.73 2037.72,1398.08C2036.51,1393.29 2036.84,1387.44 2036.81,1382.21C2036.78,1377.03 2037.2,1371.85 2037.54,1366.68C2037.9,1361.09 2038.92,1354.55 2038.99,1348.64C2039.06,1342.82 2038.94,1334.56 2037.97,1331.21C2037.46,1329.45 2034.98,1328.79 2033.17,1328.55C2030.88,1328.24 2027.23,1329.24 2024.24,1329.36C2017.17,1329.65 1999.86,1329.39 1990.76,1330.26C1983.6,1330.95 1975.8,1332.73 1969.61,1334.6C1964.07,1336.28 1958.66,1338.56 1953.67,1341.5C1948.62,1344.47 1943.31,1348.69 1939.3,1352.44C1935.63,1355.88 1930.01,1361.92 1929.63,1364.01C1929.24,1366.09 1934.53,1364.67 1936.98,1364.98C1940.06,1365.37 1944.44,1365.63 1948.11,1366.33C1952.49,1367.15 1958.32,1368.38 1963.26,1369.92C1968.19,1371.46 1975.43,1373.92 1977.76,1375.59C1978.93,1376.43 1978.24,1379.19 1977.21,1379.9C1976.17,1380.61 1973.41,1380.1 1971.54,1379.84C1969.31,1379.53 1966.37,1378.69 1963.8,1378.05C1960.6,1377.23 1956.22,1375.75 1952.34,1374.98C1947.16,1373.94 1939.1,1372.2 1932.77,1371.81C1926.64,1371.43 1920.23,1370.82 1914.36,1372.64C1907.31,1374.84 1897.94,1381.33 1890.48,1384.96C1883.6,1388.32 1875.93,1393.37 1869.57,1394.48C1863.83,1395.48 1855.86,1391.58 1852.32,1391.61C1850.64,1391.63 1848.7,1393.05 1848.34,1394.69C1847.87,1396.8 1845.98,1399.56 1845.92,1403.61C1845.88,1406.51 1847.65,1410.54 1847.51,1413.35C1847.33,1416.73 1868.28,1434 1894.36,1461.15C1906.61,1473.91 1918.51,1490.72 1933.67,1502.34C1951.32,1515.87 1971.41,1517.11 1991.24,1519.11C2021.29,1522.14 2048.28,1521.64 2045.98,1526.62C2045.84,1526.94 2030.23,1525.09 2015.44,1523.93C2002.76,1522.93 1990.64,1522.16 1989.88,1526.72C1989.4,1529.62 1995.96,1533.67 2003.47,1539.39C2017.8,1550.32 2037.55,1563.97 2032.18,1563.73C2018.03,1563.08 1999.69,1538.99 1980.7,1530.32C1972.69,1526.66 1959.82,1520.62 1952.56,1519.62C1937.85,1517.58 1930.98,1523.7 1928.07,1524.58C1914.29,1528.78 1900.88,1539.06 1891.94,1551.07C1886.31,1558.61 1903.79,1588.43 1902.88,1597.87C1901.87,1608.22 1907.54,1623.35 1898.54,1626.07C1891.19,1628.3 1901.12,1578.83 1885.49,1563.67C1880.89,1559.2 1871.59,1561.67 1862.31,1564.38C1848.54,1568.39 1834.35,1574.84 1831.79,1575.29C1817.97,1577.71 1811.36,1580.25 1807.92,1575.65C1804.03,1570.43 1834.24,1569.07 1865.58,1555.9C1885.52,1547.53 1907.03,1529.33 1916.9,1518.61C1933.72,1500.31 1890.7,1473.06 1885.88,1466.22C1874.12,1449.51 1857.55,1430.68 1846.21,1426.66C1843.75,1425.79 1841.64,1429.19 1840.26,1430.9C1836.86,1435.08 1742.13,1642.03 1740.76,1645.3C1738.86,1649.83 1743.21,1655.66 1744.22,1659.63C1745.02,1662.81 1746.39,1665.87 1746.81,1669.13C1747.26,1672.66 1745.81,1677.41 1746.93,1680.81C1747.62,1682.92 1747.68,1686.88 1750.06,1690.04C1752.84,1693.74 1757.92,1696.58 1757.74,1697.6C1757.36,1699.64 1748.92,1696.01 1745.92,1693.25C1742.92,1690.49 1740.71,1685.51 1739.75,1681.06C1738.73,1676.34 1740.29,1668.7 1739.81,1664.97C1739.51,1662.67 1738.53,1660.08 1736.83,1658.67C1735.13,1657.27 1731.9,1655.49 1729.62,1656.54C1725.26,1658.54 1715.12,1665.24 1710.67,1670.72C1706.41,1675.96 1704.53,1682.88 1702.92,1689.43C1701.23,1696.34 1701.14,1706.2 1700.51,1712.15C1700.05,1716.47 1700.28,1723.75 1699.12,1725.12C1697.96,1726.48 1694.19,1722.69 1693.56,1720.33C1692.48,1716.38 1691.94,1707.68 1692.69,1701.41C1693.57,1694.03 1695.57,1683 1698.85,1676.01C1701.87,1669.58 1707.33,1664.55 1712.34,1659.51C1717.88,1653.94 1727.17,1649.74 1732.09,1642.6C1737.69,1634.47 1741.38,1621.37 1745.95,1610.73C1747.43,1607.28 1745.46,1583.13 1733.33,1581.29C1720.76,1579.39 1695.84,1575.98 1677.2,1574.96C1664.41,1574.26 1633.86,1569.67 1628.44,1578.32C1622.63,1587.58 1642.94,1610.54 1660.75,1623.36C1674.48,1633.24 1654.55,1625.98 1634.32,1608.64C1630.31,1605.2 1623.15,1583.98 1620.38,1580.28C1614.48,1572.45 1587.68,1572.05 1589.19,1568.94C1591.15,1564.92 1604.98,1568.18 1623.75,1568.77C1631.69,1569.01 1667.31,1571.52 1667.44,1567.18C1667.83,1554.74 1611.94,1508.4 1621.46,1507.09C1624.84,1506.62 1680.02,1567.69 1683.25,1567.81C1701.63,1568.49 1720.03,1572.14 1739.93,1569.57C1746.1,1568.77 1751.75,1582.99 1756.72,1579.34C1771.12,1568.79 1778.04,1548.42 1786.55,1529.98C1799.67,1501.56 1810.72,1474.33 1813.28,1468.37C1819.51,1453.91 1828.97,1438.11 1832.63,1426.31C1836.32,1414.43 1837.33,1404.7 1838.31,1397.42C1839.55,1388.22 1827.96,1382.47 1821.6,1376.04C1813.69,1368.04 1801.32,1358.03 1790.84,1349.43C1777.19,1338.24 1757.44,1321.48 1739.71,1308.88C1721.58,1295.98 1696.45,1280.54 1682.02,1272.06C1672.8,1266.64 1662.84,1262.58 1653.16,1258.03C1642.03,1252.79 1627.87,1246.43 1615.22,1240.65C1601.5,1234.38 1584.57,1226.38 1570.81,1220.38C1558.2,1214.89 1545.31,1208.56 1532.66,1204.67C1520.38,1200.9 1507.72,1197.2 1494.88,1197.06C1486.75,1196.98 1477.49,1199.11 1468.02,1200.99C1460.65,1202.45 1453.15,1203.76 1445.94,1203.76C1435.83,1203.75 1421.61,1204.54 1409.58,1202.84C1400.07,1201.5 1392.33,1197.71 1386.24,1197.01C1378.51,1196.12 1369.49,1193.21 1363.06,1194.19C1357.24,1195.08 1352.44,1199.41 1347.68,1202.89C1339.31,1208.99 1321.95,1223.06 1312.85,1230.82C1305.96,1236.68 1298.93,1242.52 1293.07,1249.41C1287.04,1256.49 1280.23,1266.76 1276.7,1273.31C1274.15,1278.04 1273.15,1284.19 1271.89,1288.69C1270.82,1292.51 1270.53,1298.66 1269.17,1300.28C1267.93,1301.75 1264.69,1300.06 1263.71,1298.4C1262.49,1296.33 1261.82,1291.42 1261.85,1287.88C1261.87,1284.34 1264.46,1279.01 1263.85,1277.16C1263.27,1275.37 1260.09,1276.62 1258.21,1276.77C1254.51,1277.05 1247.03,1277.51 1241.62,1278.86C1235.49,1280.38 1226.35,1284.03 1221.41,1285.92C1218.18,1287.15 1214.03,1290.33 1211.96,1290.2C1210,1290.07 1208.12,1286.52 1208.97,1285.13C1209.83,1283.74 1214.42,1283.05 1217.08,1281.87C1220.96,1280.16 1226.96,1276.68 1232.22,1274.89C1237.83,1272.98 1244.66,1272.24 1250.75,1270.41C1257.01,1268.53 1264.54,1267.82 1269.81,1263.61C1275.84,1258.8 1280.58,1248.37 1286.93,1241.58C1293.36,1234.7 1301.12,1228.65 1308.37,1222.36C1315.74,1215.97 1325.7,1207.49 1331.14,1203.25C1334.22,1200.85 1339.08,1198.71 1341.01,1196.93C1342.15,1195.87 1344.08,1193.01 1342.7,1192.58C1341.32,1192.14 1336.02,1193.67 1332.71,1194.34C1326.31,1195.62 1313.61,1197.65 1304.29,1200.27C1294.72,1202.96 1285.16,1207.82 1275.25,1210.49C1263.71,1213.59 1245.38,1217.13 1235.08,1218.89C1227.96,1220.12 1220.69,1221.8 1213.5,1221.07C1203.62,1220.07 1185.48,1213.61 1175.82,1212.91C1168.94,1212.41 1162.25,1215.37 1155.52,1216.87C1146.15,1218.95 1129.9,1222.29 1119.58,1225.4C1110.67,1228.09 1100.98,1231.28 1093.59,1235.55C1086.66,1239.55 1078.95,1246.58 1075.24,1251.01C1072.7,1254.04 1072.79,1258.75 1071.29,1262.17C1069.86,1265.42 1066.99,1272.19 1066.24,1271.55C1065.49,1270.92 1065.23,1262.49 1066.78,1258.37C1068.99,1252.5 1073.76,1241.78 1079.5,1236.28C1085.23,1230.79 1093.68,1228.39 1101.2,1225.43C1109.15,1222.3 1118.77,1219.61 1127.18,1217.49C1135.26,1215.45 1146.23,1214.16 1151.71,1212.68C1154.71,1211.88 1160.63,1210.41 1160.09,1208.64C1159.55,1206.87 1152.75,1203.34 1148.49,1202.07C1141.59,1200.01 1128.71,1197.53 1118.65,1196.29C1106.98,1194.85 1089.56,1194.26 1078.46,1193.44C1069.67,1192.79 1059.16,1191.84 1052.1,1191.37C1046.77,1191.02 1040.11,1190.32 1036.09,1190.63C1033.26,1190.86 1029.67,1193.51 1027.98,1193.25Z" style="fill:rgb(210,220,209);"/>
            </g>
            <g transform="matrix(-0.5,-0.866025,0.866025,-0.5,-1074.46,1248.93)">
                <path d="M1402.65,1038.36C1401.67,1040.33 1397.04,1037.67 1396.7,1035.5C1396.12,1031.76 1398.53,1022.24 1399.13,1015.91C1399.7,1009.79 1401.89,1003.11 1400.28,997.512C1398.66,991.911 1392.68,986.404 1389.43,982.303C1386.78,978.964 1384.31,975.265 1380.75,972.91C1375.92,969.707 1366.91,965.452 1360.44,963.088C1354.49,960.911 1347.08,960.106 1341.93,958.723C1337.73,957.597 1333.54,956.401 1329.51,954.788C1324.41,952.749 1316.06,949.2 1311.34,946.49C1307.61,944.349 1303.67,940.393 1301.19,938.53C1299.67,937.386 1295.28,936.776 1296.48,935.31C1296.85,934.85 1301.37,934.764 1303.47,935.785C1305.72,936.879 1307.52,940.221 1309.99,941.874C1313.19,944.013 1318.22,946.817 1322.65,948.618C1323.13,948.809 1327.66,951.527 1326.82,945.935C1325.74,938.708 1323.28,932.749 1320.62,921.129C1316.11,901.426 1311.15,875.898 1312.31,876.253C1312.66,876.358 1313.53,878.11 1314.95,881.46C1316.52,885.168 1316.2,889.974 1317.41,893.67C1319.03,898.584 1321.8,911.284 1323.43,917.684C1328.94,939.359 1336.76,953.015 1338.49,953.453C1343.96,954.839 1349.89,955.47 1355.48,956.934C1361.17,958.423 1367.79,960.119 1372.63,962.387C1376.97,964.424 1380.91,967.395 1384.5,970.539C1388.09,973.683 1391.46,978.166 1394.16,981.252C1396.4,983.805 1398.14,987.715 1400.69,989.056C1403.24,990.397 1406.67,990.167 1409.46,989.297C1413.65,987.994 1420.23,983.682 1425.78,981.241C1433.36,977.91 1446.47,972.926 1454.92,969.309C1462.17,966.204 1469.44,962.431 1476.48,959.536C1483.26,956.746 1492.59,954.837 1497.12,951.942C1500.42,949.832 1502.55,945.475 1503.64,942.167C1504.69,938.978 1504.57,935.215 1503.66,932.094C1502.74,928.973 1499.77,926.451 1498.14,923.443C1496.21,919.86 1491.66,911.308 1492.04,910.595C1492.42,909.882 1497.86,916.111 1500.41,919.165C1502.97,922.218 1505.99,925.447 1507.39,928.915C1508.79,932.363 1509.1,936.875 1508.83,939.978C1508.59,942.687 1507.23,945.251 1505.76,947.537C1503.68,950.768 1496.55,957.216 1496.35,959.363C1496.14,961.509 1501.78,960.305 1504.53,960.417C1509.82,960.633 1520.85,961.507 1528.05,960.657C1534.8,959.859 1542.24,956.921 1547.72,955.313C1552.17,954.008 1557.49,951.662 1560.95,951.01C1563.42,950.544 1568.47,950.53 1568.47,951.398C1568.46,952.265 1563.68,955.058 1560.93,956.216C1556.36,958.139 1547.9,961.538 1541.05,962.939C1533.2,964.543 1522.23,965.392 1513.88,965.835C1506.25,966.24 1497.18,965.499 1490.96,965.599C1486.15,965.676 1480.88,965.608 1476.56,966.435C1472.55,967.202 1468.81,969.025 1465.03,970.56C1460.09,972.564 1453.03,976.011 1446.91,978.462C1439.23,981.542 1425.86,985.035 1418.94,989.037C1413.43,992.221 1407.79,999.004 1405.38,1002.47C1403.96,1004.51 1404.69,1007.38 1404.43,1009.85C1404.1,1013.1 1403.63,1017.91 1403.37,1021.96C1403.08,1026.71 1403.76,1036.1 1402.65,1038.36Z" style="fill:rgb(211,211,211);fill-opacity:0.38;"/>
            </g>
            <g transform="matrix(0.348086,-0.120595,0.327361,0.944899,-1592.93,-1863.8)">
                <path d="M1402.65,1038.36C1400.62,1039.23 1397.04,1037.67 1396.7,1035.5C1396.12,1031.76 1398.53,1022.24 1399.13,1015.91C1399.7,1009.79 1401.89,1003.11 1400.28,997.512C1398.66,991.911 1392.68,986.404 1389.43,982.303C1386.78,978.964 1384.31,975.265 1380.75,972.91C1375.92,969.707 1366.91,965.452 1360.44,963.088C1354.49,960.911 1347.08,960.106 1341.93,958.723C1337.73,957.597 1333.54,956.401 1329.51,954.788C1324.41,952.749 1316.06,949.2 1311.34,946.49C1307.61,944.349 1303.67,940.393 1301.19,938.53C1299.67,937.386 1295.28,936.776 1296.48,935.31C1296.85,934.85 1301.37,934.764 1303.47,935.785C1305.72,936.879 1307.52,940.221 1309.99,941.874C1313.19,944.013 1318.22,946.817 1322.65,948.618C1323.13,948.809 1325.02,941.448 1324.18,935.856C1323.6,931.944 1326.95,935.663 1329.69,941.808C1330.26,943.075 1328.13,946.969 1328.89,948.127C1331.25,951.727 1337.89,953.301 1338.49,953.453C1343.96,954.839 1349.89,955.47 1355.48,956.934C1361.17,958.423 1367.79,960.119 1372.63,962.387C1376.97,964.424 1380.44,967.967 1384.5,970.539C1388.82,973.284 1395.88,975.77 1398.58,978.857C1400.87,981.47 1398.88,987.316 1400.69,989.056C1402.51,990.796 1406.67,990.167 1409.46,989.297C1413.65,987.994 1420.23,983.682 1425.78,981.241C1433.36,977.91 1446.47,972.926 1454.92,969.309C1462.17,966.204 1469.44,962.431 1476.48,959.536C1483.26,956.746 1492.59,954.837 1497.12,951.942C1500.42,949.832 1502.55,945.475 1503.64,942.167C1504.69,938.978 1504.57,935.215 1503.66,932.094C1502.74,928.973 1499.77,926.451 1498.14,923.443C1496.21,919.86 1491.13,911.259 1492.04,910.595C1492.95,909.93 1500.49,916.299 1503.6,919.457C1506.47,922.384 1509.33,925.925 1510.66,929.541C1511.98,933.157 1512.16,937.881 1511.57,941.152C1511.01,944.167 1509.03,946.817 1507.06,949.169C1504.52,952.204 1496.77,957.488 1496.35,959.363C1495.93,961.237 1501.78,960.305 1504.53,960.417C1509.82,960.633 1520.85,961.507 1528.05,960.657C1534.8,959.859 1542.24,956.921 1547.72,955.313C1552.17,954.008 1557.49,951.662 1560.95,951.01C1563.42,950.544 1568.47,950.53 1568.47,951.398C1568.46,952.265 1563.68,955.058 1560.93,956.216C1556.36,958.139 1547.9,961.538 1541.05,962.939C1533.2,964.543 1522.23,965.392 1513.88,965.835C1506.25,966.24 1497.18,965.499 1490.96,965.599C1486.15,965.676 1480.88,965.608 1476.56,966.435C1472.55,967.202 1468.81,969.025 1465.03,970.56C1460.09,972.564 1453.03,976.011 1446.91,978.462C1439.23,981.542 1424.71,984.888 1418.94,989.037C1414.66,992.108 1413.26,998.183 1412.28,1003.35C1411.1,1009.51 1412.44,1021.47 1411.88,1025.96C1411.66,1027.68 1409.94,1028.85 1408.91,1030.25C1407.37,1032.31 1404.68,1037.49 1402.65,1038.36Z" style="fill:rgb(211,211,211);fill-opacity:0.38;"/>
            </g>
            <g transform="matrix(-0.5,-0.866025,0.866025,-0.5,-1074.46,1248.93)">
                <path d="M1337.44,1184.57C1338.25,1184.42 1340.52,1184.33 1343.05,1184.19C1345.29,1184.07 1348.1,1183.84 1348.88,1182.93C1349.71,1181.96 1348.84,1180.6 1348.28,1178.78C1347.71,1176.93 1347.45,1174.62 1347.46,1172.93C1347.5,1167.17 1344.67,1155.28 1349.09,1148.36C1356.27,1137.15 1382.77,1113.41 1390.55,1105.63C1392.09,1104.09 1396.4,1099.62 1395.75,1101.69C1394.32,1106.3 1358.26,1135.92 1354.63,1147.11C1352.35,1154.14 1350.37,1167.32 1350.56,1173.74C1350.65,1176.57 1352.06,1183.66 1351.5,1185.31C1350.93,1186.96 1347.54,1184.51 1346.38,1184.59C1341.4,1184.93 1336.46,1184.76 1337.44,1184.57Z" style="fill:rgb(183,187,182);fill-opacity:0.73;"/>
            </g>
            <g transform="matrix(0.5,0.866025,-0.866025,0.5,-381.865,-2246.89)">
                <path d="M1355.41,1140.2C1353.66,1141.35 1351.16,1143.63 1348.12,1145.74C1345.24,1147.73 1341.83,1149.55 1340.03,1150.9C1339.62,1151.21 1338.44,1152.49 1338.06,1153.65C1337.76,1154.53 1338.69,1155.25 1338.25,1155.24C1335.01,1155.2 1335.17,1152.39 1336.73,1150.58C1339.55,1147.34 1349.56,1140.6 1360.22,1132.32C1372.24,1122.97 1385.15,1111.94 1390.58,1107.55C1393.21,1105.42 1398.85,1098.75 1398.2,1100.83C1397.54,1102.95 1391.76,1108.84 1383.93,1115.74C1379.96,1119.23 1374.91,1123.04 1370.87,1126.63C1365.58,1131.34 1358.42,1138.22 1355.41,1140.2Z" style="fill:rgb(183,187,182);fill-opacity:0.73;"/>
            </g>
            <g transform="matrix(-0.5,0.866025,0.866025,0.5,-1168.45,-2225.17)">
                <path d="M1355.86,1136.1C1354.11,1137.25 1351.06,1139.59 1348.02,1141.7C1346.4,1142.82 1344.72,1143.75 1342.9,1144.91C1341.49,1145.81 1339.87,1147.15 1338.91,1146.95C1338.53,1146.87 1338.08,1147.05 1337.65,1147.12C1337.12,1147.2 1336.61,1147.21 1336.09,1147.28C1335.42,1147.38 1334.77,1147.38 1334.35,1147.51C1334.15,1147.56 1333.96,1147.56 1333.92,1147.75C1333.87,1147.99 1334.3,1148.15 1334.48,1148.28C1335,1148.64 1335.75,1148.66 1335.43,1148.66C1332.19,1148.61 1332.15,1148.36 1333.71,1146.55C1335.24,1144.79 1336.94,1146.06 1342.5,1143.37C1347.19,1141.11 1355.46,1135.11 1360.34,1131.32C1362.64,1129.53 1364.33,1127.54 1366.1,1126.14C1370.91,1122.33 1374.13,1120.43 1375.42,1120.03C1375.8,1119.91 1373.53,1121.57 1371.28,1123.56C1368.29,1126.18 1368.61,1125.5 1367.41,1126.21C1367.01,1126.45 1366.64,1126.54 1365.64,1127.43C1360.35,1132.14 1358.87,1134.12 1355.86,1136.1Z" style="fill:rgb(183,187,182);fill-opacity:0.73;"/>
            </g>
            <g transform="matrix(1,0,0,1,-2385.93,-1973.09)">
                <ellipse cx="1615.36" cy="1417.85" rx="19.843" ry="21.617" style="fill:rgb(121,121,121);"/>
            </g>
        </g>
    </g>
</svg>
