<?xml version="1.0" encoding="UTF-8" standalone="no"?>
<!-- Created with Inkscape (http://www.inkscape.org/) -->

<svg
   xmlns:dc="http://purl.org/dc/elements/1.1/"
   xmlns:cc="http://creativecommons.org/ns#"
   xmlns:rdf="http://www.w3.org/1999/02/22-rdf-syntax-ns#"
   xmlns:svg="http://www.w3.org/2000/svg"
   xmlns="http://www.w3.org/2000/svg"
   xmlns:sodipodi="http://sodipodi.sourceforge.net/DTD/sodipodi-0.dtd"
   xmlns:inkscape="http://www.inkscape.org/namespaces/inkscape"
   height="202.813mm"
   width="85.830055mm"
   viewBox="0 0 304.12224 718.62875"
   id="svg2"
   version="1.1"
   inkscape:version="0.91 r13725"
   sodipodi:docname="senex1.svg"
   inkscape:export-filename="/home/algot/Documents/runeman.org/clipart/senex1.png"
   inkscape:export-xdpi="41.371399"
   inkscape:export-ydpi="41.371399">
  <title
     id="title3186">Senex - Man with Cane</title>
  <defs
     id="defs8" />
  <sodipodi:namedview
     pagecolor="#ffffff"
     bordercolor="#666666"
     borderopacity="1"
     objecttolerance="10"
     gridtolerance="10"
     guidetolerance="10"
     inkscape:pageopacity="0"
     inkscape:pageshadow="2"
     inkscape:window-width="1366"
     inkscape:window-height="712"
     id="namedview6"
     showgrid="false"
     fit-margin-top="0"
     fit-margin-left="0"
     fit-margin-right="0"
     fit-margin-bottom="0"
     inkscape:zoom="0.38483985"
     inkscape:cx="-47.022408"
     inkscape:cy="189.94091"
     inkscape:window-x="0"
     inkscape:window-y="0"
     inkscape:window-maximized="1"
     inkscape:current-layer="svg2" />
  <metadata
     id="metadata4">
    <rdf:RDF>
      <cc:Work
         rdf:about="">
        <dc:format>image/svg+xml</dc:format>
        <dc:type
           rdf:resource="http://purl.org/dc/dcmitype/StillImage" />
        <dc:title>Senex - Man with Cane</dc:title>
        <dc:date>2017-08-06</dc:date>
        <dc:creator>
          <cc:Agent>
            <dc:title>Algot Runeman</dc:title>
          </cc:Agent>
        </dc:creator>
        <dc:rights>
          <cc:Agent>
            <dc:title>Algot Runeman</dc:title>
          </cc:Agent>
        </dc:rights>
        <dc:publisher>
          <cc:Agent>
            <dc:title>runeman.org</dc:title>
          </cc:Agent>
        </dc:publisher>
        <dc:identifier>senex.svg</dc:identifier>
        <cc:license
           rdf:resource="http://creativecommons.org/publicdomain/zero/1.0/" />
      </cc:Work>
      <cc:License
         rdf:about="http://creativecommons.org/publicdomain/zero/1.0/">
        <cc:permits
           rdf:resource="http://creativecommons.org/ns#Reproduction" />
        <cc:permits
           rdf:resource="http://creativecommons.org/ns#Distribution" />
        <cc:permits
           rdf:resource="http://creativecommons.org/ns#DerivativeWorks" />
      </cc:License>
    </rdf:RDF>
  </metadata>
  <g
     id="g3175"
     transform="matrix(0.31226552,0,0,0.31226552,42.541298,161.9865)">
    <path
       style="fill:#000000;fill-rule:evenodd;stroke:#000000;stroke-width:1px;stroke-linecap:butt;stroke-linejoin:miter;stroke-opacity:1"
       d="m 382.53916,-164.07186 c -16.8668,-29.68558 -33.73361,-59.37115 -50.60041,-89.05673 -9.29087,-0.49122 -19.01115,1 -28.02334,-0.77778 -6.84466,-3.5573 -14.84223,-5.87464 -21.00309,-10.16735 -7.96051,-13.59141 -14.60897,-27.83377 -21.15936,-42.11988 -2.572,-5.58989 -7.10742,-10.92097 -8.52294,-16.6633 1.13637,-6.03059 3.5278,-11.65536 5.84412,-17.30441 7.71518,3.967 9.35068,0.14731 8.09607,-7.37397 -6.98657,-7.50708 -16.37704,-13.88824 -24.2882,-20.96227 1.03493,-7.69231 3.53559,-15.53218 3.699,-23.13676 -3.7651,-10.16339 -8.66061,-20.15377 -11.72299,-30.4247 1.05707,-8.61234 0.59888,-17.85233 2.56355,-26.08874 10.44009,-14.09496 24.71271,-24.3329 37.84471,-35.71875 13.61162,-8.42939 27.81945,-16.17657 41.06742,-25.02206 3.92859,-3.9616 6.30239,-11.84915 13.09109,-8.58878 19.37465,2.71424 39.05271,2.59311 58.32034,6.30746 13.66072,2.03888 27.57381,0.52669 41.34642,0.99116 10.90181,10.1757 23.44625,18.80199 33.22527,30.03675 5.79172,7.52923 11.58343,15.05846 17.37515,22.58769 3.27174,-8.02269 4.89283,-9.05314 4.04803,0.36211 -1.611,6.37794 1.88917,10.63876 6.64537,14.37932 5.64734,3.38558 6.23056,8.86879 5.49873,14.89671 1.02246,6.13701 -0.57321,11.30552 -5.50451,15.2401 -4.32055,4.32769 -8.29863,8.76837 -6.10393,15.24546 1.50552,9.18869 -1.03328,19.62705 5.27665,27.33118 3.20857,6.27965 8.0554,12.24812 10.23693,18.72286 -1.54772,12.49405 -5.44894,24.93868 -2.55596,37.52598 1.12485,12.94242 8.3117,24.8112 10.56699,37.34551 -3.41331,10.15541 -3.04123,22.11256 -10.91903,30.143 -4.93374,5.64371 -8.73546,11.85343 -9.96377,19.34985 -4.44203,13.6022 -7.18707,27.94622 -12.72411,41.06975 -5.95161,9.39031 -11.09741,19.54897 -17.54754,28.46395 -10.22584,6.39743 -20.02897,14.19096 -30.51809,19.71886 -6.03682,-0.6761 -13.43138,2.2875 -17.48948,-3.69301 -8.6997,-7.53974 -17.39939,-15.07947 -26.09909,-22.61921 z"
       id="path3151"
       inkscape:connector-curvature="0" />
    <path
       inkscape:connector-curvature="0"
       id="path3153"
       d="m 414.92343,-267.29671 36.4323,-12.1441 16.19214,-10.12009"
       style="fill:#000000;fill-rule:evenodd;stroke:#000000;stroke-width:1px;stroke-linecap:butt;stroke-linejoin:miter;stroke-opacity:1" />
    <path
       style="fill:#000000;fill-rule:evenodd;stroke:#000000;stroke-width:1px;stroke-linecap:butt;stroke-linejoin:miter;stroke-opacity:1"
       d="M 97.152804,554.45409 C 71.516748,545.24079 5.8405738,560.129 4.8702902,528.83762 25.121607,508.31304 16.428609,490.82512 4.333041,471.11836 8.3071172,445.8467 7.8931592,418.30809 18.008353,395.02402 c 20.747582,-7.40681 2.817338,-22.12846 6.260691,-35.17137 2.952754,-14.38287 16.802705,-24.04899 18.235308,-37.24073 0,-21.89609 0,-43.79219 0,-65.68829 9.469016,-10.32668 31.009577,-15.01847 25.814294,-32.19031 0.598024,-17.43641 -6.665295,-36.92213 7.249766,-50.88703 14.60815,-16.43295 2.010415,-39.81738 11.822099,-58.56639 12.648829,-48.620447 26.307179,-97.397172 36.074509,-146.502822 -0.85197,-24.684337 13.98235,-46.651595 20.24017,-70.104418 16.33506,-24.12942 31.31204,-49.42715 54.90108,-67.31628 16.5996,-15.20638 37.44149,-26.93188 53.10382,-42.23396 7.52179,-18.91367 10.1726,-40.80171 20.86708,-57.77805 10.82978,-9.98329 28.99377,-1.1673 42.95386,-3.12687 83.47002,2.53899 166.91533,10.11984 250.42304,4.9662 21.99236,-2.22951 38.92419,20.54452 61.69583,15.3873 13.38385,3.12961 34.19227,-6.4106 41.81205,6.5552 9.03933,12.82292 16.47888,25.72664 4.8595,39.5929 12.8637,5.9858 35.68738,0.52154 43.27273,17.82674 23.91653,24.45855 37.54454,56.26975 50.55035,87.40237 21.39735,53.01657 35.9405,108.547503 49.1279,164.082797 6.80118,30.771946 15.65499,61.321253 12.57443,93.165023 0.0514,52.23321 7.44455,104.62925 7.33962,156.6454 -9.9438,40.80959 -36.22409,74.25954 -55.73325,110.7599 -16.17444,30.37988 -35.88254,59.22437 -58.94631,84.46208 -17.51913,9.73284 -35.03825,19.46569 -52.55738,29.19854 -8.20197,21.34052 -15.4814,60.85299 -32.76377,21.0308 -25.05341,-27.01547 -51.80816,-52.38742 -78.55715,-77.70327 -64.25688,20.6638 -128.19213,43.32984 -192.64967,62.74452 -19.31577,-0.87404 -39.62497,1.7289 -58.33542,-1.26375 -42.81657,-25.85992 -83.81637,-54.96683 -129.53006,-75.64888 4.353,-14.08643 -16.29854,-31.24384 -24.40374,-24.05712 -15.49639,26.97984 -22.98911,59.10921 -46.43684,80.72959 -0.38795,11.28633 -8.642798,19.40463 -10.120086,30.36025 z"
       id="path3155"
       inkscape:connector-curvature="0" />
    <path
       inkscape:connector-curvature="0"
       id="path3157"
       d="m -9.527263,585.75442 c 0,0 -9.089595,11.21672 -12.736921,15.25205 -4.455575,4.92956 -8.096067,11.5714 -8.096067,18.21615 0,6.64475 3.812815,13.13614 8.096067,18.21615 4.704145,5.57919 18.2161505,12.1441 18.2161505,12.1441 l 8.096067,24.2882 28.3362345,10.12009 14.168117,0 0,-14.16812 14.168117,6.07205 c 14.338499,3.33248 17.014767,-2.08171 16.192134,-10.12008 l -8.096067,-24.2882 -2.024017,-26.31222 0,-18.21615 8.096067,-18.21615 15.006493,-42.30093 -77.751012,3.84461 z"
       style="fill:#000000;fill-rule:evenodd;stroke:#000000;stroke-width:1px;stroke-linecap:butt;stroke-linejoin:miter;stroke-opacity:1"
       sodipodi:nodetypes="cssscccccccccccccc" />
    <path
       inkscape:connector-curvature="0"
       id="path3159"
       d="m 7.5032462,663.95442 -9.5272629,96.94937 c 0,0 -10.4158603,13.35397 -8.0960673,20.24017 C -8.8641705,784.87208 0,787.21601 0,787.21601 l -113.34494,906.75949 -8.09606,0 -14.16812,54.6485 44.528367,6.072 6.07205,-10.1201 -6.07205,-36.4323 115.368954,-926.99964 c 0,0 14.449849,-5.62622 16.192134,-12.1441 1.326885,-4.96387 -6.07205,-14.16812 -6.07205,-14.16812 l 8.096067,-78.93665 z"
       style="fill:#000000;fill-rule:evenodd;stroke:#000000;stroke-width:1px;stroke-linecap:butt;stroke-linejoin:miter;stroke-opacity:1"
       sodipodi:nodetypes="ccsccccccccsccc" />
    <path
       style="fill:#000000;fill-rule:evenodd;stroke:#000000;stroke-width:1px;stroke-linecap:butt;stroke-linejoin:miter;stroke-opacity:1"
       d="m 309.67383,443.13281 -127.51172,20.24024 c -14.48392,12.31402 -27.65322,25.1726 -22.26563,45.71818 -0.3837,29.85653 3.66894,60.43293 -10.19767,88.10164 -14.6187,41.01235 -15.25952,85.48124 -22.18514,128.18621 1.32783,64.77902 -1.71588,129.64833 -3.48223,194.25137 8.06554,44.53952 18.94415,89.03305 25.27352,133.60095 -5.82638,45.6776 -20.42195,90.9224 -13.12663,137.2476 12.48541,159.5304 10.27667,319.8809 25.74355,479.2085 18.88084,11.2408 25.29578,28.3809 -2.25304,28.9095 -26.51277,8.4268 -54.76522,14.4674 -79.616279,25.7389 -20.392579,32.0138 42.022599,45.9029 67.795169,46.4897 84.56828,-10.8635 170.23191,-12.7842 255.25779,-19.9205 5.07429,8.5575 9.85721,32.1091 30.71936,28.567 36.03039,2.5674 72.09387,5.7083 107.42124,-3.9121 27.91224,-2.6516 51.45011,-22.3604 80.12693,-20.8647 16.40298,-14.121 8.10383,-30.8045 5.43878,-47.1087 6.14849,-15.0312 20.93222,-31.4649 20.92497,-46.1407 -17.3629,-13.4691 -23.47158,-33.2767 -28.26236,-53.8266 -12.27304,-35.7872 -3.60782,-74.6109 -6.1971,-111.8024 -1.8786,-51.4769 5.79946,-103.4059 2.13893,-154.5103 -3.05775,-27.2843 -20.92645,-53.9272 -8.59447,-80.9611 6.69494,-23.5004 6.87248,-47.055 -0.18901,-70.4898 -8.52838,-33.6264 11.22269,-66.7048 11.54725,-100.6122 6.31419,-61.6337 6.18748,-123.78445 3.76802,-185.48556 6.11992,-18.65064 5.48874,-37.2551 -0.57501,-55.82239 6.80283,-28.99535 10.06724,-58.94115 20.24023,-87.03125 0,0 5.44568,-13.20599 7.95171,-30.60609 0,0 3.45443,-23.98398 0.74872,-39.88746 2.43395,-59.16096 0.82195,-118.20053 -5.24633,-177.10641 l -5.47754,-72.07597 z m 58.69726,427.06836 c 17.27698,90.83684 24.03064,183.48683 47.79691,273.08073 14.9388,40.7102 -2.17994,85.4225 15.27629,125.3954 16.79313,39.9713 7.15852,83.7434 10.12592,125.8163 2.646,60.9372 -4.07813,122.7709 10.51929,182.5648 3.12902,17.3828 6.25804,34.7657 9.38706,52.1486 -21.5314,14.2468 -29.0698,39.8841 -42.50586,60.7207 -6.36339,-15.4264 -2.3471,-38.9185 -15.36372,-49.175 -11.05357,-7.7659 5.82569,-31.7153 0.8669,-47.7999 -2.12698,-18.8609 -19.0158,-34.1813 -26.05152,-52.1188 -12.4893,-17.6606 0.96113,-40.2934 0.37552,-60.2358 3.74895,-38.1225 -12.33429,-76.2044 -11.3531,-114.2021 3.06671,-18.9086 11.7121,-38.424 -1.08603,-55.607 -9.69746,-18.8235 9.82114,-39.0336 3.13511,-59.4253 -2.24689,-37.2924 -3.85687,-74.6011 -3.1462,-111.9693 -12.14453,-14.168 -24.28907,-28.3359 -36.4336,-42.5039 8.85964,-25.4345 18.96645,-51.6735 23.61759,-77.7425 -4.22097,-17.1877 -11.31917,-34.545 -0.41088,-50.8415 3.18908,-29.23401 0.86609,-59.50006 12.36323,-87.52004 z"
       id="path3161"
       inkscape:connector-curvature="0"
       sodipodi:nodetypes="cccccccccccccccccccccccccccccccccccccccccccccccccccc" />
  </g>
</svg>
